<?xml version="1.0" standalone="no"?>
<!DOCTYPE svg PUBLIC "-//W3C//DTD SVG 20010904//EN"
 "http://www.w3.org/TR/2001/REC-SVG-20010904/DTD/svg10.dtd">
<svg version="1.0" xmlns="http://www.w3.org/2000/svg"
 width="512.000000pt" height="512.000000pt" viewBox="0 0 512.000000 512.000000"
 preserveAspectRatio="xMidYMid meet">

<g transform="translate(0.000000,512.000000) scale(0.100000,-0.100000)"
fill="#000000" stroke="none">
<path d="M2517 5109 c-38 -22 -47 -69 -47 -254 0 -195 9 -238 55 -255 43 -16
65 -12 96 19 l29 29 0 207 0 207 -29 29 c-31 31 -71 37 -104 18z"/>
<path d="M1480 4833 c-8 -3 -25 -15 -37 -26 -43 -39 -33 -76 75 -262 83 -143
104 -171 132 -183 26 -10 39 -11 62 -1 35 14 62 62 54 95 -10 40 -189 345
-211 359 -27 17 -57 24 -75 18z"/>
<path d="M3587 4827 c-22 -9 -52 -52 -127 -182 -108 -186 -117 -215 -76 -261
28 -33 84 -38 115 -10 11 10 63 94 116 187 88 152 97 172 91 204 -10 53 -68
84 -119 62z"/>
<path d="M2385 4403 c-77 -9 -236 -47 -314 -75 -640 -226 -1064 -876 -1003
-1536 36 -378 169 -661 453 -957 154 -162 205 -246 234 -393 l7 -32 -60 0
c-55 0 -63 -3 -86 -31 l-26 -31 0 -459 c0 -507 0 -507 61 -528 18 -6 74 -11
125 -11 80 0 94 -2 94 -16 0 -9 14 -46 32 -82 56 -119 176 -213 306 -241 33
-7 171 -11 360 -11 327 0 374 5 464 51 90 46 185 159 213 252 l12 42 112 5
c108 5 114 6 137 33 l24 28 0 475 0 475 -25 24 c-20 21 -34 25 -80 25 -54 0
-55 0 -55 29 0 43 47 168 87 230 20 30 92 114 162 186 221 227 337 438 408
735 37 157 43 400 14 569 -109 641 -604 1131 -1246 1236 -82 14 -329 18 -410
8z m416 -188 c264 -46 519 -184 713 -385 146 -153 237 -301 301 -493 94 -281
92 -586 -6 -864 -68 -193 -157 -330 -329 -508 -69 -71 -141 -152 -159 -178
-53 -77 -102 -194 -121 -287 l-17 -85 -89 0 -89 0 -3 720 -2 720 -188 282
c-109 165 -197 286 -210 292 -29 14 -58 14 -83 0 -11 -5 -105 -138 -209 -295
l-190 -285 0 -719 0 -720 -88 0 -88 0 -17 74 c-39 183 -101 288 -273 468 -188
196 -280 341 -349 552 -89 271 -85 582 10 846 120 330 379 617 686 759 137 63
301 108 454 125 67 7 257 -3 346 -19z m-122 -1192 c55 -84 101 -156 101 -161
0 -4 -49 -32 -108 -61 l-108 -53 -112 56 -112 56 111 166 c61 92 114 162 119
158 4 -5 53 -78 109 -161z m-209 -1020 l0 -593 -85 0 -85 0 0 635 0 635 85
-42 85 -42 0 -593z m360 42 l0 -635 -90 0 -90 0 0 593 0 593 83 41 c45 23 85
42 90 42 4 1 7 -285 7 -634z m528 -942 l3 -133 -796 0 -795 0 0 135 0 135 793
-2 792 -3 3 -132z m2 -443 l0 -130 -795 0 -795 0 0 130 0 130 795 0 795 0 0
-130z m-290 -315 c0 -40 -99 -136 -158 -153 -27 -8 -142 -12 -358 -12 -287 0
-323 2 -359 19 -56 25 -102 67 -126 112 l-19 39 510 0 c280 0 510 -2 510 -5z"/>
<path d="M669 4031 c-36 -37 -39 -82 -6 -114 41 -42 342 -207 376 -207 71 0
109 94 59 143 -39 38 -343 207 -372 207 -17 0 -39 -11 -57 -29z"/>
<path d="M4214 3969 c-87 -50 -170 -102 -183 -115 -53 -51 -15 -144 59 -144
27 0 319 159 364 199 30 26 38 58 22 96 -16 37 -42 55 -79 55 -13 0 -95 -41
-183 -91z"/>
<path d="M385 2975 c-34 -33 -34 -93 -2 -123 22 -21 31 -22 238 -22 212 0 216
0 237 23 31 33 30 90 -3 122 -24 25 -24 25 -235 25 -211 0 -211 0 -235 -25z"/>
<path d="M4279 2987 c-44 -34 -51 -96 -14 -132 24 -25 24 -25 234 -25 115 0
217 3 226 6 19 8 45 55 45 84 0 12 -13 35 -29 51 l-29 29 -209 0 c-148 -1
-213 -4 -224 -13z"/>
<path d="M849 2026 c-90 -52 -174 -104 -186 -116 -32 -30 -31 -83 2 -115 43
-44 76 -35 252 66 176 100 203 124 203 174 0 38 -46 85 -84 85 -13 0 -96 -42
-187 -94z"/>
<path d="M4037 2100 c-33 -26 -43 -70 -24 -107 21 -40 339 -223 389 -223 73 0
111 98 56 145 -45 39 -345 205 -370 205 -14 0 -37 -9 -51 -20z"/>
</g>
</svg>
