<svg width="1440" height="411" viewBox="0 0 1440 411" fill="none" xmlns="http://www.w3.org/2000/svg">
<path fill-rule="evenodd" clip-rule="evenodd" d="M2.98052 11C8.74602 4.53613 22.2547 0 38 0C53.7453 0 67.254 4.53613 73.0195 11H78.9805C84.746 4.53613 98.2547 0 114 0C129.745 0 143.254 4.53613 149.019 11H154.981C160.746 4.53613 174.255 0 190 0C205.745 0 219.254 4.53613 225.019 11H230.941C236.631 4.53613 249.962 0 265.5 0C281.038 0 294.369 4.53613 300.059 11H305.941C311.631 4.53613 324.962 0 340.5 0C356.038 0 369.369 4.53613 375.059 11H381.02C386.861 4.53613 400.548 0 416.5 0C432.452 0 446.139 4.53613 451.98 11H457.981C463.746 4.53613 477.255 0 493 0C508.745 0 522.254 4.53613 528.019 11H533.941C539.631 4.53613 552.962 0 568.5 0C584.038 0 597.369 4.53613 603.059 11H608.941C614.631 4.53613 627.962 0 643.5 0C659.038 0 672.369 4.53613 678.059 11H684.059C689.976 4.53613 703.84 0 720 0C736.16 0 750.024 4.53613 755.941 11H761.941C767.631 4.53613 780.962 0 796.5 0C812.038 0 825.369 4.53613 831.059 11H836.941C842.631 4.53613 855.962 0 871.5 0C887.038 0 900.369 4.53613 906.059 11H911.981C917.746 4.53613 931.255 0 947 0C962.745 0 976.254 4.53613 982.019 11H988.02C993.861 4.53613 1007.55 0 1023.5 0C1039.45 0 1053.14 4.53613 1058.98 11H1064.94C1070.63 4.53613 1083.96 0 1099.5 0C1115.04 0 1128.37 4.53613 1134.06 11H1139.94C1145.63 4.53613 1158.96 0 1174.5 0C1190.04 0 1203.37 4.53613 1209.06 11H1214.98C1220.75 4.53613 1234.25 0 1250 0C1265.75 0 1279.25 4.53613 1285.02 11H1290.98C1296.75 4.53613 1310.25 0 1326 0C1341.75 0 1355.25 4.53613 1361.02 11H1366.98C1372.75 4.53613 1386.25 0 1402 0C1417.75 0 1431.25 4.53613 1437.02 11H1440V18V411H0V18V11H2.98052Z" fill="#5F5F5F"/>
<path fill-rule="evenodd" clip-rule="evenodd" d="M2.98052 11C8.74602 4.53613 22.2547 0 38 0C53.7453 0 67.254 4.53613 73.0195 11H78.9805C84.746 4.53613 98.2547 0 114 0C129.745 0 143.254 4.53613 149.019 11H154.981C160.746 4.53613 174.255 0 190 0C205.745 0 219.254 4.53613 225.019 11H230.941C236.631 4.53613 249.962 0 265.5 0C281.038 0 294.369 4.53613 300.059 11H305.941C311.631 4.53613 324.962 0 340.5 0C356.038 0 369.369 4.53613 375.059 11H381.02C386.861 4.53613 400.548 0 416.5 0C432.452 0 446.139 4.53613 451.98 11H457.981C463.746 4.53613 477.255 0 493 0C508.745 0 522.254 4.53613 528.019 11H533.941C539.631 4.53613 552.962 0 568.5 0C584.038 0 597.369 4.53613 603.059 11H608.941C614.631 4.53613 627.962 0 643.5 0C659.038 0 672.369 4.53613 678.059 11H684.059C689.976 4.53613 703.84 0 720 0C736.16 0 750.024 4.53613 755.941 11H761.941C767.631 4.53613 780.962 0 796.5 0C812.038 0 825.369 4.53613 831.059 11H836.941C842.631 4.53613 855.962 0 871.5 0C887.038 0 900.369 4.53613 906.059 11H911.981C917.746 4.53613 931.255 0 947 0C962.745 0 976.254 4.53613 982.019 11H988.02C993.861 4.53613 1007.55 0 1023.5 0C1039.45 0 1053.14 4.53613 1058.98 11H1064.94C1070.63 4.53613 1083.96 0 1099.5 0C1115.04 0 1128.37 4.53613 1134.06 11H1139.94C1145.63 4.53613 1158.96 0 1174.5 0C1190.04 0 1203.37 4.53613 1209.06 11H1214.98C1220.75 4.53613 1234.25 0 1250 0C1265.75 0 1279.25 4.53613 1285.02 11H1290.98C1296.75 4.53613 1310.25 0 1326 0C1341.75 0 1355.25 4.53613 1361.02 11H1366.98C1372.75 4.53613 1386.25 0 1402 0C1417.75 0 1431.25 4.53613 1437.02 11H1440V18V411H0V18V11H2.98052Z" fill="#5F5F5F"/>
</svg>
